<svg xmlns="http://www.w3.org/2000/svg" viewBox="0 0 214 173">
<path d="M206.736 14.35c-1.11 1.177-2.755 2.05-4.402 2.05-2.79 0-4.84-2.05-4.84-5.007 0-3.126 2.218-5.007 4.84-5.007 1.847 0 3.461 1.142 4.133 2.822l-1.243.874-.941-.874c-.639-.605-1.244-.907-2.084-.907-1.377 0-2.554.941-2.554 3.092 0 1.748.94 3.059 2.891 3.059.604 0 1.276-.203 2.117-.64l1.31-.671.773 1.209zm-4.47 6.252c5.276 0 8.872-3.731 8.872-9.142s-3.596-9.108-8.872-9.108-8.872 3.697-8.872 9.108c0 5.411 3.596 9.142 8.872 9.142zm0 2.352c-6.419 0-11.392-5.176-11.392-11.494S195.847 0 202.266 0s11.393 5.142 11.393 11.46c0 6.318-4.974 11.494-11.393 11.494zM95.469 120.136L181.991 173V0H95.469zM0 86.5V173h86.52V52.864L0 0z"></path>
</svg>